<svg width="60" height="60" viewBox="0 0 60 60" fill="none" xmlns="http://www.w3.org/2000/svg">
<g clip-path="url(#clip0_2_92)">
<path d="M29.2852 25.793C27.0703 21.8555 24.7031 18.6445 24.5273 18.4102C20.9531 20.0977 18.293 23.3906 17.4609 27.3516C17.8008 27.3633 23.1445 27.4336 29.2852 25.793Z" fill="#CF2BB5"/>
<path d="M30.8906 30.0937C31.0547 30.0352 31.2305 29.9883 31.3945 29.9414C31.0781 29.2148 30.7266 28.4766 30.3516 27.7617C23.7539 29.7305 17.4258 29.5898 17.2031 29.5898C17.2031 29.7188 17.1914 29.8594 17.1914 29.9883C17.1914 33.2812 18.4336 36.2813 20.4727 38.5547V38.543C20.4727 38.543 23.9766 32.332 30.8906 30.0937Z" fill="#CF2BB5"/>
<path d="M22.0195 40.0195C21.9609 39.9727 21.9023 39.9258 21.8438 39.8789C21.9141 39.9258 21.9727 39.9844 22.0195 40.0195Z" fill="#CF2BB5"/>
<path d="M26.9297 17.5547C26.918 17.5547 26.9062 17.5664 26.8828 17.5664C26.918 17.5664 26.9297 17.5664 26.9297 17.5547C26.9297 17.5664 26.9297 17.5664 26.9297 17.5547Z" fill="#CF2BB5"/>
<path d="M38.4609 20.3906C36.1992 18.3984 33.2461 17.1914 30 17.1914C28.957 17.1914 27.9492 17.3203 26.9766 17.5547C27.1641 17.8125 29.5781 21 31.7695 25.0312C36.5977 23.2148 38.4258 20.4375 38.4609 20.3906Z" fill="#CF2BB5"/>
<path d="M32.1797 32.0977C24.5859 34.7461 22.125 40.1016 22.125 40.1016C22.125 40.1016 22.1133 40.0898 22.1016 40.0781C24.2812 41.7891 27.0234 42.8086 30 42.8086C31.7695 42.8086 33.4688 42.4453 35.0039 41.7891C34.8164 40.6641 34.0664 36.75 32.2734 32.0625C32.2383 32.0742 32.2031 32.0859 32.1797 32.0977Z" fill="#CF2BB5"/>
<path d="M30 0C13.4297 0 0 13.4297 0 30C0 46.5703 13.4297 60 30 60C46.5703 60 60 46.5703 60 30C60 13.4297 46.5703 0 30 0ZM44.6953 33.0234C44.4961 33.9844 44.2031 34.9336 43.8164 35.8359C43.4414 36.7266 42.9727 37.582 42.4336 38.3906C41.8945 39.1875 41.2852 39.9258 40.6055 40.6055C39.9258 41.2852 39.1758 41.8945 38.3906 42.4336C37.5938 42.9727 36.7266 43.4414 35.8477 43.8164C34.9453 44.2031 33.9961 44.4961 33.0234 44.6953C32.0391 44.8945 31.0195 45 30 45C28.9805 45 27.9609 44.8945 26.9766 44.6953C26.0156 44.4961 25.0664 44.2031 24.1641 43.8164C23.2734 43.4414 22.418 42.9727 21.6211 42.4336C20.8242 41.8945 20.0859 41.2852 19.4062 40.6055C18.7266 39.9258 18.1172 39.1758 17.5781 38.3906C17.0391 37.5938 16.5703 36.7266 16.1953 35.8359C15.8086 34.9336 15.5156 33.9844 15.3164 33.0234C15.1172 32.0391 15.0117 31.0195 15.0117 30C15.0117 28.9805 15.1172 27.9609 15.3164 26.9766C15.5156 26.0156 15.8086 25.0664 16.1953 24.1523C16.5703 23.2617 17.0391 22.4062 17.5781 21.6094C18.1172 20.8125 18.7266 20.0742 19.4062 19.3945C20.0859 18.7148 20.8359 18.0938 21.6211 17.5664C22.418 17.0273 23.2852 16.5586 24.1641 16.1836C25.0664 15.7969 26.0156 15.5039 26.9766 15.3047C27.9609 15.1055 28.9805 15 30 15C31.0195 15 32.0273 15.1055 33.0234 15.3047C33.9844 15.5039 34.9336 15.7969 35.8477 16.1836C36.7383 16.5586 37.5938 17.0273 38.3906 17.5664C39.1875 18.1055 39.9258 18.7148 40.6055 19.3945C41.2852 20.0742 41.8945 20.8242 42.4336 21.6094C42.9727 22.4062 43.4414 23.2617 43.8164 24.1523C44.2031 25.0547 44.4961 26.0039 44.6953 26.9766C44.8945 27.9609 45 28.9805 45 30C45 31.0195 44.8945 32.0391 44.6953 33.0234Z" fill="#CF2BB5"/>
<path d="M32.7539 26.9297C33.0469 27.5391 33.3398 28.1602 33.6094 28.793C33.7031 29.0156 33.7969 29.2383 33.8906 29.4492C38.2969 28.8984 42.6328 29.8242 42.8086 29.8711C42.7734 26.8359 41.6953 24.0469 39.8906 21.8672C39.8672 21.9023 37.8164 24.8672 32.7539 26.9297Z" fill="#CF2BB5"/>
<path d="M34.6641 31.4766C36.3398 36.0938 37.0313 39.8555 37.1602 40.6289C40.0313 38.6836 42.082 35.6133 42.6562 32.0391C42.3867 31.9453 38.8008 30.8086 34.6641 31.4766Z" fill="#CF2BB5"/>
</g>
<defs>
<clipPath id="clip0_2_92">
<rect width="60" height="60" fill="white"/>
</clipPath>
</defs>
</svg>
