<svg width="60" height="60" viewBox="0 0 60 60" fill="none" xmlns="http://www.w3.org/2000/svg">
<g clip-path="url(#clip0_2_88)">
<path d="M37.5117 29.6953C36.5039 29.5195 35.4492 29.543 34.418 29.6016C32.0742 29.7305 29.7305 29.9531 27.3867 29.7422C26.2734 29.6367 25.1484 29.5313 24.0234 29.5547C21.9844 29.5898 20.2734 30.2578 19.2656 32.2031C18.7617 33.1641 18.6445 34.1953 18.6797 35.2617C18.7617 38.2617 20.0625 39.9727 22.9219 40.8281C25.2187 41.5078 27.5742 41.6016 29.9414 41.5547C30.8203 41.5547 31.6992 41.6016 32.5781 41.543C34.3945 41.4375 36.1758 41.168 37.8984 40.5352C39.6797 39.8789 40.7461 38.625 41.1328 36.8086C41.2852 36.1055 41.3555 35.3672 41.3437 34.6523C41.3203 32.2266 39.6797 30.0586 37.5117 29.6953ZM25.9805 37.6289C25.2187 38.4609 24.1172 38.4727 23.332 37.6641C22.7578 37.0781 22.4297 36.1758 22.4297 35.0508C22.4531 34.2891 22.6758 33.457 23.332 32.7891C24.1172 31.9805 25.2187 31.9922 25.9805 32.8125C27.1289 34.0547 27.1289 36.3867 25.9805 37.6289ZM36.6328 37.6875C35.918 38.4258 34.8867 38.4492 34.125 37.7695C32.8125 36.5742 32.8125 33.9141 34.125 32.707C34.875 32.0156 35.9062 32.0391 36.6328 32.7773C37.3008 33.457 37.5234 34.3125 37.5586 35.2266C37.5234 36.1523 37.2891 36.9961 36.6328 37.6875Z" fill="black"/>
<path d="M30 0C13.4297 0 0 13.4297 0 30C0 46.5703 13.4297 60 30 60C46.5703 60 60 46.5703 60 30C60 13.4297 46.5703 0 30 0ZM45.375 32.625C45.2109 33.9609 44.9297 35.332 44.4492 36.5859C43.043 40.1836 40.2305 42.1641 36.5039 42.7617C34.3711 43.1016 32.1797 43.1133 29.8125 43.2891C27.6914 43.1016 25.3594 43.0781 23.0977 42.6797C18.7148 41.9062 15.7383 38.8359 14.8711 34.4414C14.4258 32.2031 14.2969 29.9531 14.9883 27.7266C15.3516 26.5781 15.9492 25.5586 16.7227 24.6328C16.8281 24.5156 16.9219 24.3398 16.9102 24.1875C16.7812 22.1719 17.0156 20.1797 17.6133 18.2578C18.1055 16.6523 17.7422 16.7461 19.5234 17.2148C21.668 17.7773 23.543 18.9375 25.3828 20.1445C25.5938 20.2852 25.9219 20.3438 26.1797 20.2969C28.7812 19.8984 31.3711 19.875 33.9727 20.332C34.1602 20.3672 34.4062 20.2969 34.582 20.1914C36.1641 19.1602 37.793 18.2344 39.5742 17.5898C40.2188 17.3555 40.8984 17.2031 41.5547 17.0039C41.8477 16.9219 41.9766 17.0273 42.082 17.3086C42.8789 19.5352 43.207 21.8203 43.0898 24.1758C43.0781 24.3047 43.1484 24.4805 43.2305 24.5859C45.2344 26.9062 45.7383 29.6719 45.375 32.625Z" fill="black"/>
</g>
<defs>
<clipPath id="clip0_2_88">
<rect width="60" height="60" fill="white"/>
</clipPath>
</defs>
</svg>
