<svg width="159" height="159" viewBox="0 0 159 159" fill="none" xmlns="http://www.w3.org/2000/svg">
<circle cx="79.5" cy="79.5" r="79.5" fill="white"/>
<path d="M102.095 114.216V114.716H102.595H116.419H116.919V114.216V68.904V68.404H116.419H102.595H102.095V68.904V114.216ZM115.806 60.1444L115.806 60.1441C117.627 58.3902 118.551 56.278 118.551 53.832C118.551 51.3319 117.666 49.2165 115.902 47.5196L115.555 47.88L115.902 47.5196C114.142 45.8275 112.001 44.98 109.507 44.98C107.068 44.98 104.929 45.8662 103.112 47.6158C101.351 49.3098 100.463 51.3918 100.463 53.832C100.463 56.332 101.348 58.4474 103.112 60.1444C104.872 61.8365 107.014 62.684 109.507 62.684C111.941 62.684 114.049 61.8338 115.806 60.1444Z" fill="#FFC83B" stroke="#FFC83B"/>
<path d="M39.5748 113.953L39.1027 114.716H40H95.872H96.372V114.216V102.12V101.62H95.872H70.048C68.0585 101.62 66.5295 101.684 65.474 101.816C64.8779 101.89 64.2141 102.016 63.4835 102.193C63.9155 101.728 64.3148 101.263 64.6812 100.797L64.6863 100.79L64.6912 100.784C65.4052 99.81 66.2444 98.5507 67.208 97.009L67.2108 97.0045L98.7948 45.2605L99.259 44.5H98.368H44.32H43.82V45V57.864V58.364H44.32H68.512C68.8222 58.364 69.5453 58.2571 70.6149 58.0684L70.6257 58.0665L70.6365 58.0641C71.5655 57.8576 72.9297 57.5476 74.7286 57.134C74.2879 57.6951 74.0026 58.062 73.8746 58.2325C73.4206 58.8167 73.0778 59.3573 72.8626 59.8515L71.3442 62.6036L39.5748 113.953Z" fill="#FFC83B" stroke="#FFC83B"/>
</svg>
