<svg width="670" height="385" viewBox="0 0 670 385" fill="none" xmlns="http://www.w3.org/2000/svg">
<g filter="url(#filter0_d_6_205)">
<g clip-path="url(#clip0_6_205)">
<rect x="35.2775" y="34.5024" width="600.131" height="315.497" rx="20" fill="#C072F0"/>
<circle opacity="0.2" cx="612.374" cy="49.1908" r="70.5366" transform="rotate(-5 612.374 49.1908)" fill="url(#paint0_linear_6_205)"/>
<circle opacity="0.2" cx="64.1206" cy="341.121" r="146.912" transform="rotate(-5 64.1206 341.121)" fill="url(#paint1_linear_6_205)"/>
<path fill-rule="evenodd" clip-rule="evenodd" d="M477.559 212.586C486.886 208.681 497.388 211.552 506.394 220.455L506.692 220.782C514.591 230.696 516.814 239.681 513.319 247.475C504.595 266.917 463.168 269.736 458.475 269.989L451 270.405L455.195 264.187C455.262 264.083 462.305 253.44 462.305 235.263C462.305 225.661 468.575 216.334 477.559 212.586ZM568.047 143.561C571.766 143.486 574.816 144.595 577.196 146.908C579.947 149.66 581.13 152.858 580.989 156.428C580.245 174.129 547.371 206.556 522.307 228.72C520.663 224.332 517.993 219.498 513.821 214.291L513.226 213.622C507.804 208.193 501.772 204.474 495.458 202.689C515.68 179.781 549.9 144.297 568.047 143.561Z" fill="#C986F2"/>
</g>
<circle cx="587.398" cy="65.3665" r="6.85864" fill="white"/>
<rect x="460.513" y="58.5078" width="109.738" height="13.7173" rx="6.85864" fill="white"/>
</g>
<path d="M116.901 119.877V165H109V119.877H116.901ZM133.385 165H125.916V119.075H133.385V165ZM148.877 165H141.408V119.075H148.877V165ZM177.456 134.506H184.986V165H178.011L177.456 160.926C175.604 163.827 171.653 165.802 167.579 165.802C160.542 165.802 156.406 161.049 156.406 153.58V134.506H163.937V150.926C163.937 156.728 166.221 159.074 170.419 159.074C175.172 159.074 177.456 156.296 177.456 150.494V134.506ZM189.816 155.741H196.976C197.038 158.395 199.013 160.062 202.47 160.062C205.989 160.062 207.902 158.642 207.902 156.42C207.902 154.877 207.1 153.766 204.384 153.148L198.89 151.852C193.396 150.617 190.742 148.025 190.742 143.148C190.742 137.161 195.804 133.581 202.841 133.581C209.692 133.581 214.322 137.531 214.384 143.457H207.223C207.162 140.864 205.433 139.198 202.532 139.198C199.569 139.198 197.841 140.556 197.841 142.84C197.841 144.568 199.199 145.679 201.791 146.296L207.285 147.593C212.408 148.766 215.001 151.111 215.001 155.803C215.001 161.975 209.754 165.802 202.223 165.802C194.631 165.802 189.816 161.728 189.816 155.741ZM231.105 165H223.574V140.803H217.71V134.506H223.574V125H231.105V134.506H237.031V140.803H231.105V165ZM260.848 134.383V141.358H258.071C252.638 141.358 249.243 144.259 249.243 150.185V165H241.713V134.568H248.811L249.243 139.013C250.54 135.988 253.441 133.951 257.515 133.951C258.564 133.951 259.614 134.074 260.848 134.383ZM273.814 165.802C267.333 165.802 263.382 162.037 263.382 156.296C263.382 150.679 267.456 147.161 274.678 146.605L283.814 145.926V145.247C283.814 141.111 281.345 139.445 277.518 139.445C273.073 139.445 270.604 141.297 270.604 144.506H264.184C264.184 137.902 269.617 133.581 277.888 133.581C286.098 133.581 291.159 138.025 291.159 146.482V165H284.555L283.999 160.494C282.703 163.642 278.567 165.802 273.814 165.802ZM276.283 160.124C280.913 160.124 283.876 157.346 283.876 152.654V151.05L277.518 151.543C272.826 151.975 271.036 153.519 271.036 155.988C271.036 158.765 272.888 160.124 276.283 160.124ZM308.506 165H300.975V140.803H295.111V134.506H300.975V125H308.506V134.506H314.432V140.803H308.506V165ZM322.879 128.395C320.286 128.395 318.249 126.358 318.249 123.828C318.249 121.297 320.286 119.321 322.879 119.321C325.348 119.321 327.385 121.297 327.385 123.828C327.385 126.358 325.348 128.395 322.879 128.395ZM319.113 165V134.506H326.644V165H319.113ZM332.635 149.692C332.635 140.185 339.487 133.642 348.931 133.642C358.375 133.642 365.227 140.185 365.227 149.692C365.227 159.198 358.375 165.741 348.931 165.741C339.487 165.741 332.635 159.198 332.635 149.692ZM340.166 149.692C340.166 155.247 343.746 159.012 348.931 159.012C354.116 159.012 357.696 155.247 357.696 149.692C357.696 144.136 354.116 140.371 348.931 140.371C343.746 140.371 340.166 144.136 340.166 149.692ZM378.727 165H371.196V134.506H378.171L378.789 138.457C380.702 135.371 384.406 133.581 388.542 133.581C396.196 133.581 400.147 138.334 400.147 146.235V165H392.616V148.025C392.616 142.901 390.085 140.432 386.196 140.432C381.567 140.432 378.727 143.642 378.727 148.58V165Z" fill="white"/>
<path d="M109.76 221H106.688V197.864H109.76L117.728 217.32L125.696 197.864H128.832V221H125.76V211.848C125.76 207.528 125.792 205.96 125.952 204.328L119.2 221H116.256L109.536 204.392C109.696 205.512 109.76 207.88 109.76 211.112V221ZM138.283 221.384C134.923 221.384 132.939 219.496 132.939 216.648C132.939 213.768 135.083 211.976 138.763 211.688L143.691 211.304V210.856C143.691 208.232 142.123 207.304 140.011 207.304C137.483 207.304 136.043 208.424 136.043 210.312H133.419C133.419 207.048 136.107 204.904 140.139 204.904C144.011 204.904 146.635 206.952 146.635 211.176V221H144.075L143.755 218.472C142.955 220.264 140.811 221.384 138.283 221.384ZM139.147 219.048C141.995 219.048 143.723 217.192 143.723 214.248V213.416L139.723 213.736C137.067 213.992 135.979 215.016 135.979 216.552C135.979 218.216 137.195 219.048 139.147 219.048ZM153.873 221H150.865V197.448H153.873V212.712L160.817 205.352H164.593L158.609 211.592L164.561 221H161.105L156.529 213.768L153.873 216.552V221ZM168.523 201.64C167.435 201.64 166.539 200.744 166.539 199.656C166.539 198.536 167.435 197.672 168.523 197.672C169.611 197.672 170.507 198.536 170.507 199.656C170.507 200.744 169.611 201.64 168.523 201.64ZM167.051 221V205.352H170.059V221H167.051ZM177.434 221H174.426V205.352H177.146L177.466 207.752C178.458 205.96 180.442 204.904 182.65 204.904C186.778 204.904 188.666 207.432 188.666 211.432V221H185.658V212.104C185.658 208.936 184.186 207.656 181.882 207.656C179.066 207.656 177.434 209.672 177.434 212.712V221ZM191.84 212.776C191.84 208.36 194.688 204.904 199.232 204.904C201.76 204.904 203.712 206.056 204.704 208.008L204.928 205.352H207.616V220.36C207.616 225.288 204.576 228.424 199.776 228.424C195.52 228.424 192.608 226.024 192.032 222.056H195.04C195.424 224.36 197.152 225.704 199.776 225.704C202.72 225.704 204.64 223.784 204.64 220.808V217.672C203.616 219.496 201.568 220.584 199.104 220.584C194.656 220.584 191.84 217.16 191.84 212.776ZM194.848 212.712C194.848 215.656 196.672 217.96 199.616 217.96C202.656 217.96 204.512 215.784 204.512 212.712C204.512 209.704 202.72 207.528 199.648 207.528C196.64 207.528 194.848 209.832 194.848 212.712ZM219.683 213.192C219.683 208.296 222.787 204.904 227.363 204.904C231.299 204.904 234.051 207.144 234.595 210.632H231.587C231.075 208.648 229.475 207.592 227.459 207.592C224.611 207.592 222.659 209.768 222.659 213.16C222.659 216.52 224.483 218.696 227.331 218.696C229.475 218.696 231.075 217.576 231.619 215.72H234.627C234.019 219.112 231.107 221.384 227.331 221.384C222.723 221.384 219.683 218.12 219.683 213.192ZM246.761 205.224V207.976H245.417C242.569 207.976 240.809 209.704 240.809 212.712V221H237.801V205.384H240.617L240.809 207.752C241.449 206.12 243.017 205.032 245.161 205.032C245.705 205.032 246.153 205.096 246.761 205.224ZM255.772 221.384C251.164 221.384 247.996 218.056 247.996 213.192C247.996 208.296 251.1 204.904 255.644 204.904C260.092 204.904 263.004 207.976 263.004 212.616V213.736L250.908 213.768C251.132 217.064 252.86 218.888 255.836 218.888C258.172 218.888 259.708 217.928 260.22 216.136H263.036C262.268 219.496 259.644 221.384 255.772 221.384ZM255.644 207.432C253.02 207.432 251.356 209 250.972 211.752H259.996C259.996 209.16 258.3 207.432 255.644 207.432ZM270.783 221.384C267.423 221.384 265.439 219.496 265.439 216.648C265.439 213.768 267.583 211.976 271.263 211.688L276.191 211.304V210.856C276.191 208.232 274.623 207.304 272.511 207.304C269.983 207.304 268.543 208.424 268.543 210.312H265.919C265.919 207.048 268.607 204.904 272.639 204.904C276.511 204.904 279.135 206.952 279.135 211.176V221H276.575L276.255 218.472C275.455 220.264 273.311 221.384 270.783 221.384ZM271.647 219.048C274.495 219.048 276.223 217.192 276.223 214.248V213.416L272.223 213.736C269.567 213.992 268.479 215.016 268.479 216.552C268.479 218.216 269.695 219.048 271.647 219.048ZM287.467 221H284.459V207.88H281.387V205.352H284.459V200.456H287.467V205.352H290.539V207.88H287.467V221ZM294.711 201.64C293.623 201.64 292.727 200.744 292.727 199.656C292.727 198.536 293.623 197.672 294.711 197.672C295.799 197.672 296.695 198.536 296.695 199.656C296.695 200.744 295.799 201.64 294.711 201.64ZM293.239 221V205.352H296.247V221H293.239ZM304.998 221L298.694 205.352H301.894L305.318 214.088C305.862 215.56 306.31 216.872 306.566 217.832C306.822 216.808 307.334 215.464 307.878 214.088L311.366 205.352H314.502L307.974 221H304.998ZM322.928 221.384C318.32 221.384 315.152 218.056 315.152 213.192C315.152 208.296 318.256 204.904 322.8 204.904C327.248 204.904 330.16 207.976 330.16 212.616V213.736L318.064 213.768C318.288 217.064 320.016 218.888 322.992 218.888C325.328 218.888 326.864 217.928 327.376 216.136H330.192C329.424 219.496 326.8 221.384 322.928 221.384ZM322.8 207.432C320.176 207.432 318.512 209 318.128 211.752H327.152C327.152 209.16 325.456 207.432 322.8 207.432ZM346.654 221L340.35 205.352H343.55L346.974 214.088C347.518 215.56 347.966 216.872 348.222 217.832C348.478 216.808 348.99 215.464 349.534 214.088L353.022 205.352H356.158L349.63 221H346.654ZM360.023 201.64C358.935 201.64 358.039 200.744 358.039 199.656C358.039 198.536 358.935 197.672 360.023 197.672C361.111 197.672 362.007 198.536 362.007 199.656C362.007 200.744 361.111 201.64 360.023 201.64ZM358.551 221V205.352H361.559V221H358.551ZM364.646 216.456H367.526C367.526 218.056 368.742 219.016 370.726 219.016C372.838 219.016 374.054 218.152 374.054 216.712C374.054 215.656 373.542 215.016 371.91 214.6L369.158 213.96C366.374 213.288 365.062 211.912 365.062 209.608C365.062 206.728 367.494 204.904 370.95 204.904C374.374 204.904 376.614 206.824 376.678 209.8H373.798C373.734 208.232 372.678 207.24 370.854 207.24C368.966 207.24 367.91 208.072 367.91 209.512C367.91 210.568 368.678 211.272 370.214 211.656L372.966 212.328C375.622 212.968 376.934 214.184 376.934 216.52C376.934 219.496 374.374 221.384 370.662 221.384C366.982 221.384 364.646 219.432 364.646 216.456ZM391.086 205.352H394.062V221H391.374L391.054 218.632C390.158 220.264 388.078 221.384 385.774 221.384C382.126 221.384 380.078 218.92 380.078 215.08V205.352H383.086V214.088C383.086 217.448 384.526 218.728 386.83 218.728C389.582 218.728 391.086 216.968 391.086 213.608V205.352ZM403.002 221.384C399.642 221.384 397.658 219.496 397.658 216.648C397.658 213.768 399.802 211.976 403.482 211.688L408.41 211.304V210.856C408.41 208.232 406.842 207.304 404.73 207.304C402.202 207.304 400.762 208.424 400.762 210.312H398.138C398.138 207.048 400.826 204.904 404.858 204.904C408.73 204.904 411.354 206.952 411.354 211.176V221H408.794L408.474 218.472C407.674 220.264 405.53 221.384 403.002 221.384ZM403.866 219.048C406.714 219.048 408.442 217.192 408.442 214.248V213.416L404.442 213.736C401.786 213.992 400.698 215.016 400.698 216.552C400.698 218.216 401.914 219.048 403.866 219.048ZM418.592 221H415.584V197.448H418.592V221ZM436.346 221.384C432.986 221.384 431.002 219.496 431.002 216.648C431.002 213.768 433.146 211.976 436.826 211.688L441.754 211.304V210.856C441.754 208.232 440.186 207.304 438.074 207.304C435.546 207.304 434.106 208.424 434.106 210.312H431.482C431.482 207.048 434.17 204.904 438.202 204.904C442.074 204.904 444.698 206.952 444.698 211.176V221H442.138L441.818 218.472C441.018 220.264 438.874 221.384 436.346 221.384ZM437.21 219.048C440.058 219.048 441.786 217.192 441.786 214.248V213.416L437.786 213.736C435.13 213.992 434.042 215.016 434.042 216.552C434.042 218.216 435.258 219.048 437.21 219.048ZM457.824 205.224V207.976H456.48C453.632 207.976 451.872 209.704 451.872 212.712V221H448.864V205.384H451.68L451.872 207.752C452.512 206.12 454.08 205.032 456.224 205.032C456.768 205.032 457.216 205.096 457.824 205.224ZM465.686 221H462.678V207.88H459.606V205.352H462.678V200.456H465.686V205.352H468.758V207.88H465.686V221ZM474.817 221L469.697 205.352H472.801L475.393 213.48C475.745 214.632 476.065 215.816 476.353 217.192C476.609 215.816 477.025 214.504 477.377 213.48L480.001 205.352H483.073L485.665 213.48C485.921 214.248 486.433 216.072 486.689 217.192C486.945 215.944 487.233 214.856 487.681 213.48L490.305 205.352H493.441L488.097 221H485.249L482.529 212.616C482.017 211.048 481.697 209.832 481.537 208.968C481.377 209.736 481.089 210.76 480.513 212.648L477.793 221H474.817ZM494.277 213.16C494.277 208.328 497.733 204.936 502.437 204.936C507.109 204.936 510.565 208.328 510.565 213.16C510.565 217.992 507.109 221.384 502.437 221.384C497.733 221.384 494.277 217.992 494.277 213.16ZM497.317 213.16C497.317 216.424 499.397 218.696 502.437 218.696C505.445 218.696 507.557 216.424 507.557 213.16C507.557 209.896 505.445 207.624 502.437 207.624C499.397 207.624 497.317 209.896 497.317 213.16ZM522.855 205.224V207.976H521.511C518.663 207.976 516.903 209.704 516.903 212.712V221H513.895V205.384H516.711L516.903 207.752C517.543 206.12 519.111 205.032 521.255 205.032C521.799 205.032 522.247 205.096 522.855 205.224ZM528.748 221H525.74V197.448H528.748V212.712L535.692 205.352H539.468L533.484 211.592L539.436 221H535.98L531.404 213.768L528.748 216.552V221ZM107.648 235.64C106.56 235.64 105.664 234.744 105.664 233.656C105.664 232.536 106.56 231.672 107.648 231.672C108.736 231.672 109.632 232.536 109.632 233.656C109.632 234.744 108.736 235.64 107.648 235.64ZM106.176 255V239.352H109.184V255H106.176ZM116.623 255H113.615V231.448H116.623V255ZM124.123 255H121.115V231.448H124.123V255ZM139.367 239.352H142.343V255H139.655L139.335 252.632C138.439 254.264 136.359 255.384 134.055 255.384C130.407 255.384 128.359 252.92 128.359 249.08V239.352H131.367V248.088C131.367 251.448 132.807 252.728 135.111 252.728C137.863 252.728 139.367 250.968 139.367 247.608V239.352ZM145.115 250.456H147.995C147.995 252.056 149.211 253.016 151.195 253.016C153.307 253.016 154.523 252.152 154.523 250.712C154.523 249.656 154.011 249.016 152.379 248.6L149.627 247.96C146.843 247.288 145.531 245.912 145.531 243.608C145.531 240.728 147.963 238.904 151.419 238.904C154.843 238.904 157.083 240.824 157.147 243.8H154.267C154.203 242.232 153.147 241.24 151.323 241.24C149.435 241.24 148.379 242.072 148.379 243.512C148.379 244.568 149.147 245.272 150.683 245.656L153.435 246.328C156.091 246.968 157.403 248.184 157.403 250.52C157.403 253.496 154.843 255.384 151.131 255.384C147.451 255.384 145.115 253.432 145.115 250.456ZM165.155 255H162.147V241.88H159.075V239.352H162.147V234.456H165.155V239.352H168.227V241.88H165.155V255ZM179.886 239.224V241.976H178.542C175.694 241.976 173.934 243.704 173.934 246.712V255H170.926V239.384H173.742L173.934 241.752C174.574 240.12 176.142 239.032 178.286 239.032C178.83 239.032 179.278 239.096 179.886 239.224ZM186.658 255.384C183.298 255.384 181.314 253.496 181.314 250.648C181.314 247.768 183.458 245.976 187.138 245.688L192.066 245.304V244.856C192.066 242.232 190.498 241.304 188.386 241.304C185.858 241.304 184.418 242.424 184.418 244.312H181.794C181.794 241.048 184.482 238.904 188.514 238.904C192.386 238.904 195.01 240.952 195.01 245.176V255H192.45L192.13 252.472C191.33 254.264 189.186 255.384 186.658 255.384ZM187.522 253.048C190.37 253.048 192.098 251.192 192.098 248.248V247.416L188.098 247.736C185.442 247.992 184.354 249.016 184.354 250.552C184.354 252.216 185.57 253.048 187.522 253.048ZM203.342 255H200.334V241.88H197.262V239.352H200.334V234.456H203.342V239.352H206.414V241.88H203.342V255ZM210.586 235.64C209.498 235.64 208.602 234.744 208.602 233.656C208.602 232.536 209.498 231.672 210.586 231.672C211.674 231.672 212.57 232.536 212.57 233.656C212.57 234.744 211.674 235.64 210.586 235.64ZM209.114 255V239.352H212.122V255H209.114ZM215.465 247.16C215.465 242.328 218.921 238.936 223.625 238.936C228.297 238.936 231.753 242.328 231.753 247.16C231.753 251.992 228.297 255.384 223.625 255.384C218.921 255.384 215.465 251.992 215.465 247.16ZM218.505 247.16C218.505 250.424 220.585 252.696 223.625 252.696C226.633 252.696 228.745 250.424 228.745 247.16C228.745 243.896 226.633 241.624 223.625 241.624C220.585 241.624 218.505 243.896 218.505 247.16ZM238.09 255H235.082V239.352H237.802L238.122 241.752C239.114 239.96 241.098 238.904 243.306 238.904C247.434 238.904 249.322 241.432 249.322 245.432V255H246.314V246.104C246.314 242.936 244.842 241.656 242.538 241.656C239.722 241.656 238.09 243.672 238.09 246.712V255ZM268.51 255.384C263.967 255.384 261.215 251.992 261.215 247.224C261.215 242.424 263.999 238.904 268.639 238.904C271.039 238.904 273.055 239.96 274.111 241.88V231.448H277.087V255H274.399L274.143 252.152C273.119 254.296 271.007 255.384 268.51 255.384ZM269.119 252.664C272.191 252.664 274.079 250.392 274.079 247.128C274.079 243.928 272.191 241.624 269.119 241.624C266.047 241.624 264.255 243.928 264.255 247.128C264.255 250.36 266.047 252.664 269.119 252.664ZM282.898 235.64C281.81 235.64 280.914 234.744 280.914 233.656C280.914 232.536 281.81 231.672 282.898 231.672C283.986 231.672 284.882 232.536 284.882 233.656C284.882 234.744 283.986 235.64 282.898 235.64ZM281.426 255V239.352H284.434V255H281.426ZM287.809 246.776C287.809 242.36 290.657 238.904 295.201 238.904C297.729 238.904 299.681 240.056 300.673 242.008L300.897 239.352H303.585V254.36C303.585 259.288 300.545 262.424 295.745 262.424C291.489 262.424 288.577 260.024 288.001 256.056H291.009C291.393 258.36 293.121 259.704 295.745 259.704C298.689 259.704 300.609 257.784 300.609 254.808V251.672C299.585 253.496 297.537 254.584 295.073 254.584C290.625 254.584 287.809 251.16 287.809 246.776ZM290.817 246.712C290.817 249.656 292.641 251.96 295.585 251.96C298.625 251.96 300.481 249.784 300.481 246.712C300.481 243.704 298.689 241.528 295.617 241.528C292.609 241.528 290.817 243.832 290.817 246.712ZM309.398 235.64C308.31 235.64 307.414 234.744 307.414 233.656C307.414 232.536 308.31 231.672 309.398 231.672C310.486 231.672 311.382 232.536 311.382 233.656C311.382 234.744 310.486 235.64 309.398 235.64ZM307.926 255V239.352H310.934V255H307.926ZM319.717 255H316.709V241.88H313.637V239.352H316.709V234.456H319.717V239.352H322.789V241.88H319.717V255ZM329.877 255.384C326.517 255.384 324.533 253.496 324.533 250.648C324.533 247.768 326.677 245.976 330.357 245.688L335.285 245.304V244.856C335.285 242.232 333.717 241.304 331.605 241.304C329.077 241.304 327.637 242.424 327.637 244.312H325.013C325.013 241.048 327.701 238.904 331.733 238.904C335.605 238.904 338.229 240.952 338.229 245.176V255H335.669L335.349 252.472C334.549 254.264 332.405 255.384 329.877 255.384ZM330.741 253.048C333.589 253.048 335.317 251.192 335.317 248.248V247.416L331.317 247.736C328.661 247.992 327.573 249.016 327.573 250.552C327.573 252.216 328.789 253.048 330.741 253.048ZM345.467 255H342.459V231.448H345.467V255ZM352.967 255H349.959V231.448H352.967V255ZM355.891 262.008V259.544H357.907C359.347 259.544 360.499 259.32 361.235 257.336L361.779 255.832L355.475 239.352H358.643L363.187 251.96L367.827 239.352H370.931L363.539 258.52C362.483 261.208 360.915 262.328 358.515 262.328C357.523 262.328 356.691 262.2 355.891 262.008Z" fill="white" fill-opacity="0.7"/>
<defs>
<filter id="filter0_d_6_205" x="0.984297" y="0.209251" width="668.717" height="384.084" filterUnits="userSpaceOnUse" color-interpolation-filters="sRGB">
<feFlood flood-opacity="0" result="BackgroundImageFix"/>
<feColorMatrix in="SourceAlpha" type="matrix" values="0 0 0 0 0 0 0 0 0 0 0 0 0 0 0 0 0 0 127 0" result="hardAlpha"/>
<feOffset/>
<feGaussianBlur stdDeviation="17.1466"/>
<feComposite in2="hardAlpha" operator="out"/>
<feColorMatrix type="matrix" values="0 0 0 0 0.752941 0 0 0 0 0.447059 0 0 0 0 0.941176 0 0 0 0.4 0"/>
<feBlend mode="normal" in2="BackgroundImageFix" result="effect1_dropShadow_6_205"/>
<feBlend mode="normal" in="SourceGraphic" in2="effect1_dropShadow_6_205" result="shape"/>
</filter>
<linearGradient id="paint0_linear_6_205" x1="612.374" y1="-21.3458" x2="639.657" y2="119.727" gradientUnits="userSpaceOnUse">
<stop stop-color="white"/>
<stop offset="1" stop-color="white" stop-opacity="0.23"/>
</linearGradient>
<linearGradient id="paint1_linear_6_205" x1="64.1206" y1="194.209" x2="120.945" y2="488.033" gradientUnits="userSpaceOnUse">
<stop stop-color="white"/>
<stop offset="1" stop-color="white" stop-opacity="0.23"/>
</linearGradient>
<clipPath id="clip0_6_205">
<rect x="35.2775" y="34.5024" width="600.131" height="315.497" rx="20" fill="white"/>
</clipPath>
</defs>
</svg>
