<svg width="95" height="55" viewBox="0 0 95 55" fill="none" xmlns="http://www.w3.org/2000/svg">
<path d="M81.5353 50.9308V52.4308H83.0353H91.4452H92.9452V50.9308V3V1.5H91.4452H83.0353H81.5353V3V50.9308Z" stroke="#FFC83B" stroke-width="3"/>
<path d="M78.7384 40.551H80.2384V39.051C80.2384 33.3628 78.981 28.7567 76.2483 25.451L75.0921 26.4067L76.2483 25.451C73.4769 22.0986 69.524 20.4959 64.6238 20.4959C59.942 20.4959 55.9941 22.0659 52.9038 25.2433L52.9036 25.2435C49.8519 28.3823 48.3623 32.4013 48.3623 37.1691C48.3623 42.0051 49.8469 46.0087 52.9339 49.0074C56.0126 51.9981 60.0819 53.4306 64.9767 53.4306C68.2034 53.4306 71.0651 52.7642 73.5018 51.3639C75.9442 49.9603 77.872 47.8695 79.3006 45.1616L80.0449 43.7507L78.5909 43.0944L72.9556 40.551H78.7384ZM59.9317 40.551H70.1249L70.0389 40.6957C69.2526 42.0181 68.4838 42.8441 67.7738 43.3041C67.0837 43.7128 66.1577 43.9614 64.9179 43.9614C63.2177 43.9614 62.0036 43.4869 61.1201 42.6605C60.5515 42.1286 60.1415 41.4449 59.9317 40.551ZM67.5238 30.7796L67.5427 30.8L67.5623 30.8196C68.0234 31.2807 68.3735 31.8967 68.56 32.7286H60.1724C60.4395 31.9469 60.8308 31.3241 61.3232 30.8289C62.159 30.0263 63.1854 29.6122 64.5062 29.6122C65.8836 29.6122 66.8322 30.0348 67.5238 30.7796Z" stroke="#FFC83B" stroke-width="3"/>
<path d="M45.4963 18.6656L45.4955 18.6663C44.1973 19.9146 42.6095 20.5553 40.8096 20.5553C38.9824 20.5553 37.3716 19.9228 36.0649 18.6663C34.7429 17.3952 34.0754 15.7856 34.0754 13.9388C34.0754 12.1188 34.7517 10.5331 36.0641 9.27086L45.4963 18.6656ZM45.4963 18.6656C46.835 17.3765 47.5438 15.7764 47.5438 13.9388C47.5438 12.092 46.8763 10.4824 45.5543 9.21129L44.5147 10.2925M45.4963 18.6656L44.5147 10.2925M44.5147 10.2925L45.5543 9.21128C44.2476 7.95481 42.6368 7.32227 40.8096 7.32227C38.9931 7.32227 37.39 7.99435 36.0649 9.2701L44.5147 10.2925ZM35.0752 50.9308V52.4308H36.5752H45.044H46.544V50.9308V23.1721V21.6721H45.044H36.5752H35.0752V23.1721V50.9308Z" stroke="#FFC83B" stroke-width="3"/>
<path d="M4.73434 50.1258L3.26815 52.4308H6H32.2884H33.7884V50.9308V44.1088V42.6088H32.2884H22.9963H22.8631L22.9658 42.4474L22.968 42.444L34.7868 23.9808L36.2647 21.6721H33.5235H7.82314H6.32314V23.1721V29.8177V31.3177H7.82314H16.4683H16.7041L16.5729 31.5146L16.564 31.528L16.5553 31.5416L4.73434 50.1258Z" stroke="#FFC83B" stroke-width="3"/>
</svg>
