<svg width="670" height="385" viewBox="0 0 670 385" fill="none" xmlns="http://www.w3.org/2000/svg">
<g filter="url(#filter0_d_6_152)">
<g clip-path="url(#clip0_6_152)">
<rect x="35" y="35" width="600.131" height="315.497" rx="20" fill="#E35156"/>
<circle opacity="0.2" cx="612.096" cy="49.6883" r="70.5366" transform="rotate(-5 612.096 49.6883)" fill="url(#paint0_linear_6_152)"/>
<circle opacity="0.2" cx="63.8431" cy="341.618" r="146.912" transform="rotate(-5 63.8431 341.618)" fill="url(#paint1_linear_6_152)"/>
<path d="M516.5 122.375H493.125C480.215 122.375 469.75 132.84 469.75 145.75C469.75 158.66 480.215 169.125 493.125 169.125M516.5 122.375V169.125M516.5 122.375H539.875C552.785 122.375 563.25 132.84 563.25 145.75C563.25 158.66 552.785 169.125 539.875 169.125M493.125 169.125H516.5M493.125 169.125C480.215 169.125 469.75 179.59 469.75 192.5C469.75 205.41 480.215 215.875 493.125 215.875M516.5 169.125H539.875M516.5 169.125V215.875M539.875 169.125C552.785 169.125 563.25 179.59 563.25 192.5C563.25 205.41 552.785 215.875 539.875 215.875C526.965 215.875 516.5 205.41 516.5 192.5C516.5 179.59 526.965 169.125 539.875 169.125ZM516.5 215.875H493.125M516.5 215.875V239.25C516.5 252.16 506.035 262.625 493.125 262.625C480.215 262.625 469.75 252.16 469.75 239.25C469.75 226.34 480.215 215.875 493.125 215.875" stroke="#E76B6F" stroke-width="10" stroke-linecap="round" stroke-linejoin="round"/>
</g>
<circle cx="587.12" cy="65.864" r="6.85864" fill="white"/>
<rect x="460.236" y="59.0054" width="109.738" height="13.7173" rx="6.85864" fill="white"/>
<path d="M108.691 148.519V119.877H116.592V148.025C116.592 154.506 120.111 158.086 126.531 158.086C132.95 158.086 136.531 154.445 136.531 148.025V119.877H144.432V148.519C144.432 159.074 137.518 165.741 126.531 165.741C115.605 165.741 108.691 159.136 108.691 148.519ZM162.052 119.877V165H154.15V119.877H162.052ZM174.523 165H167.054L184.646 119.939H192.177L174.523 165ZM196.882 148.519V119.877H204.784V148.025C204.784 154.506 208.302 158.086 214.722 158.086C221.141 158.086 224.722 154.445 224.722 148.025V119.877H232.623V148.519C232.623 159.074 225.709 165.741 214.722 165.741C203.796 165.741 196.882 159.136 196.882 148.519ZM253.699 142.469L238.7 119.877H248.082L253.576 127.963C255.428 130.741 256.971 133.334 258.638 136.42L269.131 119.877H278.329L263.576 142.408L278.391 165H269.07L264.008 157.531C262.033 154.506 260.428 151.79 258.638 148.519L247.65 165H238.391L253.699 142.469ZM317.229 165H300.995V119.877H316.797C330.13 119.877 339.328 129.074 339.328 142.531C339.328 155.803 330.316 165 317.229 165ZM316.057 127.161H308.896V157.716H316.489C325.501 157.716 330.995 151.914 330.995 142.531C330.995 132.963 325.377 127.161 316.057 127.161ZM359.219 165.802C350.145 165.802 343.787 159.198 343.787 149.753C343.787 140.185 350.021 133.581 358.972 133.581C368.107 133.581 373.91 139.692 373.91 149.198V151.482L350.947 151.543C351.503 156.914 354.342 159.63 359.342 159.63C363.478 159.63 366.194 158.025 367.058 155.124H374.033C372.737 161.79 367.182 165.802 359.219 165.802ZM359.033 139.753C354.589 139.753 351.873 142.161 351.132 146.729H366.441C366.441 142.531 363.54 139.753 359.033 139.753ZM377.591 155.741H384.752C384.813 158.395 386.789 160.062 390.246 160.062C393.764 160.062 395.678 158.642 395.678 156.42C395.678 154.877 394.875 153.766 392.159 153.148L386.665 151.852C381.172 150.617 378.517 148.025 378.517 143.148C378.517 137.161 383.579 133.581 390.616 133.581C397.468 133.581 402.097 137.531 402.159 143.457H394.999C394.937 140.864 393.208 139.198 390.307 139.198C387.344 139.198 385.616 140.556 385.616 142.84C385.616 144.568 386.974 145.679 389.567 146.296L395.06 147.593C400.184 148.766 402.776 151.111 402.776 155.803C402.776 161.975 397.529 165.802 389.999 165.802C382.406 165.802 377.591 161.728 377.591 155.741ZM412.276 128.395C409.683 128.395 407.646 126.358 407.646 123.828C407.646 121.297 409.683 119.321 412.276 119.321C414.745 119.321 416.782 121.297 416.782 123.828C416.782 126.358 414.745 128.395 412.276 128.395ZM408.51 165V134.506H416.041V165H408.51ZM422.093 149.074C422.093 140.185 427.896 133.519 436.599 133.519C441.167 133.519 444.747 135.432 446.537 138.704L446.969 134.506H453.945V163.457C453.945 173.642 447.834 180 437.957 180C429.192 180 423.204 175 422.278 166.852H429.809C430.303 170.802 433.328 173.148 437.957 173.148C443.142 173.148 446.476 169.876 446.476 164.815V159.753C444.562 162.593 440.797 164.383 436.414 164.383C427.772 164.383 422.093 157.901 422.093 149.074ZM429.686 148.889C429.686 154.012 432.957 157.84 437.896 157.84C443.081 157.84 446.29 154.198 446.29 148.889C446.29 143.704 443.142 140.124 437.896 140.124C432.896 140.124 429.686 143.889 429.686 148.889ZM469.269 165H461.738V134.506H468.714L469.331 138.457C471.244 135.371 474.948 133.581 479.084 133.581C486.738 133.581 490.689 138.334 490.689 146.235V165H483.158V148.025C483.158 142.901 480.627 140.432 476.738 140.432C472.109 140.432 469.269 143.642 469.269 148.58V165Z" fill="white"/>
<path d="M118.912 211.176H109.824V221H106.688V197.864H120.64V200.744H109.824V208.328H118.912V211.176ZM121.683 213.16C121.683 208.328 125.139 204.936 129.843 204.936C134.515 204.936 137.971 208.328 137.971 213.16C137.971 217.992 134.515 221.384 129.843 221.384C125.139 221.384 121.683 217.992 121.683 213.16ZM124.723 213.16C124.723 216.424 126.803 218.696 129.843 218.696C132.851 218.696 134.963 216.424 134.963 213.16C134.963 209.896 132.851 207.624 129.843 207.624C126.803 207.624 124.723 209.896 124.723 213.16ZM140.277 213.192C140.277 208.296 143.381 204.904 147.957 204.904C151.893 204.904 154.645 207.144 155.189 210.632H152.181C151.669 208.648 150.069 207.592 148.053 207.592C145.205 207.592 143.253 209.768 143.253 213.16C143.253 216.52 145.077 218.696 147.925 218.696C150.069 218.696 151.669 217.576 152.213 215.72H155.221C154.613 219.112 151.701 221.384 147.925 221.384C143.317 221.384 140.277 218.12 140.277 213.192ZM169.211 205.352H172.187V221H169.499L169.179 218.632C168.283 220.264 166.203 221.384 163.899 221.384C160.251 221.384 158.203 218.92 158.203 215.08V205.352H161.211V214.088C161.211 217.448 162.651 218.728 164.955 218.728C167.707 218.728 169.211 216.968 169.211 213.608V205.352ZM174.959 216.456H177.839C177.839 218.056 179.055 219.016 181.039 219.016C183.151 219.016 184.367 218.152 184.367 216.712C184.367 215.656 183.855 215.016 182.223 214.6L179.471 213.96C176.687 213.288 175.375 211.912 175.375 209.608C175.375 206.728 177.807 204.904 181.263 204.904C184.687 204.904 186.927 206.824 186.991 209.8H184.111C184.047 208.232 182.991 207.24 181.167 207.24C179.279 207.24 178.223 208.072 178.223 209.512C178.223 210.568 178.991 211.272 180.527 211.656L183.279 212.328C185.935 212.968 187.247 214.184 187.247 216.52C187.247 219.496 184.687 221.384 180.975 221.384C177.295 221.384 174.959 219.432 174.959 216.456ZM197.334 221.384C192.726 221.384 189.558 218.056 189.558 213.192C189.558 208.296 192.662 204.904 197.206 204.904C201.654 204.904 204.566 207.976 204.566 212.616V213.736L192.47 213.768C192.694 217.064 194.422 218.888 197.398 218.888C199.734 218.888 201.27 217.928 201.782 216.136H204.598C203.83 219.496 201.206 221.384 197.334 221.384ZM197.206 207.432C194.582 207.432 192.918 209 192.534 211.752H201.558C201.558 209.16 199.862 207.432 197.206 207.432ZM206.646 216.456H209.526C209.526 218.056 210.742 219.016 212.726 219.016C214.838 219.016 216.054 218.152 216.054 216.712C216.054 215.656 215.542 215.016 213.91 214.6L211.158 213.96C208.374 213.288 207.062 211.912 207.062 209.608C207.062 206.728 209.494 204.904 212.95 204.904C216.374 204.904 218.614 206.824 218.678 209.8H215.798C215.734 208.232 214.678 207.24 212.854 207.24C210.966 207.24 209.91 208.072 209.91 209.512C209.91 210.568 210.678 211.272 212.214 211.656L214.966 212.328C217.622 212.968 218.934 214.184 218.934 216.52C218.934 219.496 216.374 221.384 212.662 221.384C208.982 221.384 206.646 219.432 206.646 216.456ZM229.996 213.16C229.996 208.328 233.452 204.936 238.156 204.936C242.828 204.936 246.284 208.328 246.284 213.16C246.284 217.992 242.828 221.384 238.156 221.384C233.452 221.384 229.996 217.992 229.996 213.16ZM233.036 213.16C233.036 216.424 235.116 218.696 238.156 218.696C241.164 218.696 243.276 216.424 243.276 213.16C243.276 209.896 241.164 207.624 238.156 207.624C235.116 207.624 233.036 209.896 233.036 213.16ZM252.622 221H249.614V205.352H252.334L252.654 207.752C253.646 205.96 255.63 204.904 257.838 204.904C261.966 204.904 263.854 207.432 263.854 211.432V221H260.846V212.104C260.846 208.936 259.374 207.656 257.07 207.656C254.254 207.656 252.622 209.672 252.622 212.712V221ZM275.746 213.192C275.746 208.296 278.85 204.904 283.426 204.904C287.362 204.904 290.114 207.144 290.658 210.632H287.65C287.138 208.648 285.538 207.592 283.522 207.592C280.674 207.592 278.722 209.768 278.722 213.16C278.722 216.52 280.546 218.696 283.394 218.696C285.538 218.696 287.138 217.576 287.682 215.72H290.69C290.082 219.112 287.17 221.384 283.394 221.384C278.786 221.384 275.746 218.12 275.746 213.192ZM302.824 205.224V207.976H301.48C298.632 207.976 296.872 209.704 296.872 212.712V221H293.864V205.384H296.68L296.872 207.752C297.512 206.12 299.08 205.032 301.224 205.032C301.768 205.032 302.216 205.096 302.824 205.224ZM311.834 221.384C307.226 221.384 304.058 218.056 304.058 213.192C304.058 208.296 307.162 204.904 311.706 204.904C316.154 204.904 319.066 207.976 319.066 212.616V213.736L306.97 213.768C307.194 217.064 308.922 218.888 311.898 218.888C314.234 218.888 315.77 217.928 316.282 216.136H319.098C318.33 219.496 315.706 221.384 311.834 221.384ZM311.706 207.432C309.082 207.432 307.418 209 307.034 211.752H316.058C316.058 209.16 314.362 207.432 311.706 207.432ZM326.846 221.384C323.486 221.384 321.502 219.496 321.502 216.648C321.502 213.768 323.646 211.976 327.326 211.688L332.254 211.304V210.856C332.254 208.232 330.686 207.304 328.574 207.304C326.046 207.304 324.606 208.424 324.606 210.312H321.982C321.982 207.048 324.67 204.904 328.702 204.904C332.574 204.904 335.198 206.952 335.198 211.176V221H332.638L332.318 218.472C331.518 220.264 329.374 221.384 326.846 221.384ZM327.71 219.048C330.558 219.048 332.286 217.192 332.286 214.248V213.416L328.286 213.736C325.63 213.992 324.542 215.016 324.542 216.552C324.542 218.216 325.758 219.048 327.71 219.048ZM343.53 221H340.522V207.88H337.45V205.352H340.522V200.456H343.53V205.352H346.602V207.88H343.53V221ZM350.773 201.64C349.685 201.64 348.789 200.744 348.789 199.656C348.789 198.536 349.685 197.672 350.773 197.672C351.861 197.672 352.757 198.536 352.757 199.656C352.757 200.744 351.861 201.64 350.773 201.64ZM349.301 221V205.352H352.309V221H349.301ZM359.684 221H356.676V205.352H359.396L359.716 207.752C360.708 205.96 362.692 204.904 364.9 204.904C369.028 204.904 370.916 207.432 370.916 211.432V221H367.908V212.104C367.908 208.936 366.436 207.656 364.132 207.656C361.316 207.656 359.684 209.672 359.684 212.712V221ZM374.09 212.776C374.09 208.36 376.938 204.904 381.482 204.904C384.01 204.904 385.962 206.056 386.954 208.008L387.178 205.352H389.866V220.36C389.866 225.288 386.826 228.424 382.026 228.424C377.77 228.424 374.858 226.024 374.282 222.056H377.29C377.674 224.36 379.402 225.704 382.026 225.704C384.97 225.704 386.89 223.784 386.89 220.808V217.672C385.866 219.496 383.818 220.584 381.354 220.584C376.906 220.584 374.09 217.16 374.09 212.776ZM377.098 212.712C377.098 215.656 378.922 217.96 381.866 217.96C384.906 217.96 386.762 215.784 386.762 212.712C386.762 209.704 384.97 207.528 381.898 207.528C378.89 207.528 377.098 209.832 377.098 212.712ZM404.429 201.64C403.341 201.64 402.445 200.744 402.445 199.656C402.445 198.536 403.341 197.672 404.429 197.672C405.517 197.672 406.413 198.536 406.413 199.656C406.413 200.744 405.517 201.64 404.429 201.64ZM402.957 221V205.352H405.965V221H402.957ZM413.34 221H410.332V205.352H413.052L413.372 207.752C414.364 205.96 416.348 204.904 418.556 204.904C422.684 204.904 424.572 207.432 424.572 211.432V221H421.564V212.104C421.564 208.936 420.092 207.656 417.788 207.656C414.972 207.656 413.34 209.672 413.34 212.712V221ZM433.155 221H430.147V207.88H427.075V205.352H430.147V200.456H433.155V205.352H436.227V207.88H433.155V221ZM449.742 205.352H452.718V221H450.03L449.71 218.632C448.814 220.264 446.734 221.384 444.43 221.384C440.782 221.384 438.734 218.92 438.734 215.08V205.352H441.742V214.088C441.742 217.448 443.182 218.728 445.486 218.728C448.238 218.728 449.742 216.968 449.742 213.608V205.352ZM458.554 201.64C457.466 201.64 456.57 200.744 456.57 199.656C456.57 198.536 457.466 197.672 458.554 197.672C459.642 197.672 460.538 198.536 460.538 199.656C460.538 200.744 459.642 201.64 458.554 201.64ZM457.082 221V205.352H460.09V221H457.082ZM468.873 221H465.865V207.88H462.793V205.352H465.865V200.456H468.873V205.352H471.945V207.88H468.873V221ZM476.117 201.64C475.029 201.64 474.133 200.744 474.133 199.656C474.133 198.536 475.029 197.672 476.117 197.672C477.205 197.672 478.101 198.536 478.101 199.656C478.101 200.744 477.205 201.64 476.117 201.64ZM474.645 221V205.352H477.653V221H474.645ZM486.404 221L480.1 205.352H483.3L486.724 214.088C487.268 215.56 487.716 216.872 487.972 217.832C488.228 216.808 488.74 215.464 489.284 214.088L492.772 205.352H495.908L489.38 221H486.404ZM504.334 221.384C499.726 221.384 496.558 218.056 496.558 213.192C496.558 208.296 499.662 204.904 504.206 204.904C508.654 204.904 511.566 207.976 511.566 212.616V213.736L499.47 213.768C499.694 217.064 501.422 218.888 504.398 218.888C506.734 218.888 508.27 217.928 508.782 216.136H511.598C510.83 219.496 508.206 221.384 504.334 221.384ZM504.206 207.432C501.582 207.432 499.918 209 499.534 211.752H508.558C508.558 209.16 506.862 207.432 504.206 207.432ZM518.469 219.752C518.469 222.056 516.741 223.976 514.469 224.264V222.92C515.781 222.696 516.709 221.832 516.709 220.84C516.485 220.968 516.229 221.032 515.845 221.032C514.789 221.032 513.893 220.264 513.893 219.08C513.893 217.8 514.757 216.872 516.037 216.872C517.381 216.872 518.469 217.992 518.469 219.752ZM112.928 255.384C108.32 255.384 105.152 252.056 105.152 247.192C105.152 242.296 108.256 238.904 112.8 238.904C117.248 238.904 120.16 241.976 120.16 246.616V247.736L108.064 247.768C108.288 251.064 110.016 252.888 112.992 252.888C115.328 252.888 116.864 251.928 117.376 250.136H120.192C119.424 253.496 116.8 255.384 112.928 255.384ZM112.8 241.432C110.176 241.432 108.512 243 108.128 245.752H117.152C117.152 243.16 115.456 241.432 112.8 241.432ZM126.528 255H123.52V239.352H126.24L126.56 241.752C127.552 239.96 129.536 238.904 131.744 238.904C135.872 238.904 137.76 241.432 137.76 245.432V255H134.752V246.104C134.752 242.936 133.28 241.656 130.976 241.656C128.16 241.656 126.528 243.672 126.528 246.712V255ZM140.934 246.776C140.934 242.36 143.782 238.904 148.326 238.904C150.854 238.904 152.806 240.056 153.798 242.008L154.022 239.352H156.71V254.36C156.71 259.288 153.67 262.424 148.87 262.424C144.614 262.424 141.702 260.024 141.126 256.056H144.134C144.518 258.36 146.246 259.704 148.87 259.704C151.814 259.704 153.734 257.784 153.734 254.808V251.672C152.71 253.496 150.662 254.584 148.198 254.584C143.75 254.584 140.934 251.16 140.934 246.776ZM143.942 246.712C143.942 249.656 145.766 251.96 148.71 251.96C151.75 251.96 153.606 249.784 153.606 246.712C153.606 243.704 151.814 241.528 148.742 241.528C145.734 241.528 143.942 243.832 143.942 246.712ZM165.627 255.384C162.267 255.384 160.283 253.496 160.283 250.648C160.283 247.768 162.427 245.976 166.107 245.688L171.035 245.304V244.856C171.035 242.232 169.467 241.304 167.355 241.304C164.827 241.304 163.387 242.424 163.387 244.312H160.763C160.763 241.048 163.451 238.904 167.483 238.904C171.355 238.904 173.979 240.952 173.979 245.176V255H171.419L171.099 252.472C170.299 254.264 168.155 255.384 165.627 255.384ZM166.491 253.048C169.339 253.048 171.067 251.192 171.067 248.248V247.416L167.067 247.736C164.411 247.992 163.323 249.016 163.323 250.552C163.323 252.216 164.539 253.048 166.491 253.048ZM177.153 246.776C177.153 242.36 180.001 238.904 184.545 238.904C187.073 238.904 189.025 240.056 190.017 242.008L190.241 239.352H192.929V254.36C192.929 259.288 189.889 262.424 185.089 262.424C180.833 262.424 177.921 260.024 177.345 256.056H180.353C180.737 258.36 182.465 259.704 185.089 259.704C188.033 259.704 189.953 257.784 189.953 254.808V251.672C188.929 253.496 186.881 254.584 184.417 254.584C179.969 254.584 177.153 251.16 177.153 246.776ZM180.161 246.712C180.161 249.656 181.985 251.96 184.929 251.96C187.969 251.96 189.825 249.784 189.825 246.712C189.825 243.704 188.033 241.528 184.961 241.528C181.953 241.528 180.161 243.832 180.161 246.712ZM198.742 235.64C197.654 235.64 196.758 234.744 196.758 233.656C196.758 232.536 197.654 231.672 198.742 231.672C199.83 231.672 200.726 232.536 200.726 233.656C200.726 234.744 199.83 235.64 198.742 235.64ZM197.27 255V239.352H200.278V255H197.27ZM207.653 255H204.645V239.352H207.365L207.685 241.752C208.677 239.96 210.661 238.904 212.869 238.904C216.997 238.904 218.885 241.432 218.885 245.432V255H215.877V246.104C215.877 242.936 214.405 241.656 212.101 241.656C209.285 241.656 207.653 243.672 207.653 246.712V255ZM222.059 246.776C222.059 242.36 224.907 238.904 229.451 238.904C231.979 238.904 233.931 240.056 234.923 242.008L235.147 239.352H237.835V254.36C237.835 259.288 234.795 262.424 229.995 262.424C225.739 262.424 222.827 260.024 222.251 256.056H225.259C225.643 258.36 227.371 259.704 229.995 259.704C232.939 259.704 234.859 257.784 234.859 254.808V251.672C233.835 253.496 231.787 254.584 229.323 254.584C224.875 254.584 222.059 251.16 222.059 246.776ZM225.067 246.712C225.067 249.656 226.891 251.96 229.835 251.96C232.875 251.96 234.731 249.784 234.731 246.712C234.731 243.704 232.939 241.528 229.867 241.528C226.859 241.528 225.067 243.832 225.067 246.712ZM246.688 253.752C246.688 256.056 244.96 257.976 242.688 258.264V256.92C244 256.696 244.928 255.832 244.928 254.84C244.704 254.968 244.448 255.032 244.064 255.032C243.008 255.032 242.112 254.264 242.112 253.08C242.112 251.8 242.976 250.872 244.256 250.872C245.6 250.872 246.688 251.992 246.688 253.752ZM264.346 255.384C260.986 255.384 259.002 253.496 259.002 250.648C259.002 247.768 261.146 245.976 264.826 245.688L269.754 245.304V244.856C269.754 242.232 268.186 241.304 266.074 241.304C263.546 241.304 262.106 242.424 262.106 244.312H259.482C259.482 241.048 262.17 238.904 266.202 238.904C270.074 238.904 272.698 240.952 272.698 245.176V255H270.138L269.818 252.472C269.018 254.264 266.874 255.384 264.346 255.384ZM265.21 253.048C268.058 253.048 269.786 251.192 269.786 248.248V247.416L265.786 247.736C263.13 247.992 262.042 249.016 262.042 250.552C262.042 252.216 263.258 253.048 265.21 253.048ZM279.872 255H276.864V239.352H279.584L279.904 241.752C280.896 239.96 282.88 238.904 285.088 238.904C289.216 238.904 291.104 241.432 291.104 245.432V255H288.096V246.104C288.096 242.936 286.624 241.656 284.32 241.656C281.504 241.656 279.872 243.672 279.872 246.712V255ZM301.542 255.384C296.998 255.384 294.246 251.992 294.246 247.224C294.246 242.424 297.03 238.904 301.67 238.904C304.07 238.904 306.086 239.96 307.142 241.88V231.448H310.118V255H307.43L307.174 252.152C306.15 254.296 304.038 255.384 301.542 255.384ZM302.15 252.664C305.222 252.664 307.11 250.392 307.11 247.128C307.11 243.928 305.222 241.624 302.15 241.624C299.078 241.624 297.286 243.928 297.286 247.128C297.286 250.36 299.078 252.664 302.15 252.664ZM334.023 239.352H336.999V255H334.311L333.991 252.632C333.095 254.264 331.015 255.384 328.711 255.384C325.063 255.384 323.015 252.92 323.015 249.08V239.352H326.023V248.088C326.023 251.448 327.463 252.728 329.767 252.728C332.519 252.728 334.023 250.968 334.023 247.608V239.352ZM339.771 250.456H342.651C342.651 252.056 343.867 253.016 345.851 253.016C347.963 253.016 349.179 252.152 349.179 250.712C349.179 249.656 348.667 249.016 347.035 248.6L344.283 247.96C341.499 247.288 340.187 245.912 340.187 243.608C340.187 240.728 342.619 238.904 346.075 238.904C349.499 238.904 351.739 240.824 351.803 243.8H348.923C348.859 242.232 347.803 241.24 345.979 241.24C344.091 241.24 343.035 242.072 343.035 243.512C343.035 244.568 343.803 245.272 345.339 245.656L348.091 246.328C350.747 246.968 352.059 248.184 352.059 250.52C352.059 253.496 349.499 255.384 345.787 255.384C342.107 255.384 339.771 253.432 339.771 250.456ZM362.147 255.384C357.539 255.384 354.371 252.056 354.371 247.192C354.371 242.296 357.475 238.904 362.019 238.904C366.467 238.904 369.379 241.976 369.379 246.616V247.736L357.283 247.768C357.507 251.064 359.235 252.888 362.211 252.888C364.547 252.888 366.083 251.928 366.595 250.136H369.411C368.643 253.496 366.019 255.384 362.147 255.384ZM362.019 241.432C359.395 241.432 357.731 243 357.347 245.752H366.371C366.371 243.16 364.675 241.432 362.019 241.432ZM381.699 239.224V241.976H380.355C377.507 241.976 375.747 243.704 375.747 246.712V255H372.739V239.384H375.555L375.747 241.752C376.387 240.12 377.955 239.032 380.099 239.032C380.643 239.032 381.091 239.096 381.699 239.224ZM383.047 247.864V245.176H392.807V247.864H383.047ZM394.7 239.352H397.004V236.856C397.004 233.016 399.116 231.448 401.964 231.448C402.54 231.448 403.212 231.48 403.82 231.576V234.168H402.476C400.524 234.168 400.012 235.16 400.012 236.856V239.352H403.724V241.88H400.012V255H397.004V241.88H394.7V239.352ZM415.48 239.224V241.976H414.136C411.288 241.976 409.528 243.704 409.528 246.712V255H406.52V239.384H409.336L409.528 241.752C410.168 240.12 411.736 239.032 413.88 239.032C414.424 239.032 414.872 239.096 415.48 239.224ZM419.773 235.64C418.685 235.64 417.789 234.744 417.789 233.656C417.789 232.536 418.685 231.672 419.773 231.672C420.861 231.672 421.757 232.536 421.757 233.656C421.757 234.744 420.861 235.64 419.773 235.64ZM418.301 255V239.352H421.309V255H418.301ZM432.428 255.384C427.82 255.384 424.652 252.056 424.652 247.192C424.652 242.296 427.756 238.904 432.3 238.904C436.748 238.904 439.66 241.976 439.66 246.616V247.736L427.564 247.768C427.788 251.064 429.516 252.888 432.492 252.888C434.828 252.888 436.364 251.928 436.876 250.136H439.692C438.924 253.496 436.3 255.384 432.428 255.384ZM432.3 241.432C429.676 241.432 428.012 243 427.628 245.752H436.652C436.652 243.16 434.956 241.432 432.3 241.432ZM446.028 255H443.02V239.352H445.74L446.06 241.752C447.052 239.96 449.036 238.904 451.244 238.904C455.372 238.904 457.26 241.432 457.26 245.432V255H454.252V246.104C454.252 242.936 452.78 241.656 450.476 241.656C447.66 241.656 446.028 243.672 446.028 246.712V255ZM467.698 255.384C463.154 255.384 460.402 251.992 460.402 247.224C460.402 242.424 463.186 238.904 467.826 238.904C470.226 238.904 472.242 239.96 473.298 241.88V231.448H476.274V255H473.586L473.33 252.152C472.306 254.296 470.194 255.384 467.698 255.384ZM468.306 252.664C471.378 252.664 473.266 250.392 473.266 247.128C473.266 243.928 471.378 241.624 468.306 241.624C465.234 241.624 463.442 243.928 463.442 247.128C463.442 250.36 465.234 252.664 468.306 252.664ZM483.686 255H480.678V231.448H483.686V255ZM486.61 262.008V259.544H488.626C490.066 259.544 491.218 259.32 491.954 257.336L492.498 255.832L486.194 239.352H489.362L493.906 251.96L498.546 239.352H501.65L494.258 258.52C493.202 261.208 491.634 262.328 489.234 262.328C488.242 262.328 487.41 262.2 486.61 262.008ZM107.648 269.64C106.56 269.64 105.664 268.744 105.664 267.656C105.664 266.536 106.56 265.672 107.648 265.672C108.736 265.672 109.632 266.536 109.632 267.656C109.632 268.744 108.736 269.64 107.648 269.64ZM106.176 289V273.352H109.184V289H106.176ZM116.559 289H113.551V273.352H116.271L116.591 275.752C117.583 273.96 119.567 272.904 121.775 272.904C125.903 272.904 127.791 275.432 127.791 279.432V289H124.783V280.104C124.783 276.936 123.311 275.656 121.007 275.656C118.191 275.656 116.559 277.672 116.559 280.712V289ZM136.373 289H133.365V275.88H130.293V273.352H133.365V268.456H136.373V273.352H139.445V275.88H136.373V289ZM148.741 289.384C144.133 289.384 140.965 286.056 140.965 281.192C140.965 276.296 144.069 272.904 148.613 272.904C153.061 272.904 155.972 275.976 155.972 280.616V281.736L143.877 281.768C144.101 285.064 145.829 286.888 148.805 286.888C151.141 286.888 152.677 285.928 153.189 284.136H156.005C155.237 287.496 152.613 289.384 148.741 289.384ZM148.613 275.432C145.989 275.432 144.325 277 143.941 279.752H152.965C152.965 277.16 151.269 275.432 148.613 275.432ZM168.292 273.224V275.976H166.948C164.1 275.976 162.34 277.704 162.34 280.712V289H159.332V273.384H162.148L162.34 275.752C162.98 274.12 164.548 273.032 166.692 273.032C167.236 273.032 167.684 273.096 168.292 273.224ZM170.075 273.352H172.379V270.856C172.379 267.016 174.491 265.448 177.339 265.448C177.915 265.448 178.587 265.48 179.195 265.576V268.168H177.851C175.899 268.168 175.387 269.16 175.387 270.856V273.352H179.099V275.88H175.387V289H172.379V275.88H170.075V273.352ZM185.971 289.384C182.611 289.384 180.627 287.496 180.627 284.648C180.627 281.768 182.771 279.976 186.451 279.688L191.379 279.304V278.856C191.379 276.232 189.811 275.304 187.699 275.304C185.171 275.304 183.731 276.424 183.731 278.312H181.107C181.107 275.048 183.795 272.904 187.827 272.904C191.699 272.904 194.323 274.952 194.323 279.176V289H191.763L191.443 286.472C190.643 288.264 188.499 289.384 185.971 289.384ZM186.835 287.048C189.683 287.048 191.411 285.192 191.411 282.248V281.416L187.411 281.736C184.755 281.992 183.667 283.016 183.667 284.552C183.667 286.216 184.883 287.048 186.835 287.048ZM197.465 281.192C197.465 276.296 200.569 272.904 205.145 272.904C209.081 272.904 211.833 275.144 212.377 278.632H209.369C208.857 276.648 207.257 275.592 205.241 275.592C202.393 275.592 200.441 277.768 200.441 281.16C200.441 284.52 202.265 286.696 205.113 286.696C207.257 286.696 208.857 285.576 209.401 283.72H212.409C211.801 287.112 208.889 289.384 205.113 289.384C200.505 289.384 197.465 286.12 197.465 281.192ZM222.334 289.384C217.726 289.384 214.558 286.056 214.558 281.192C214.558 276.296 217.662 272.904 222.206 272.904C226.654 272.904 229.566 275.976 229.566 280.616V281.736L217.47 281.768C217.694 285.064 219.422 286.888 222.398 286.888C224.734 286.888 226.27 285.928 226.782 284.136H229.598C228.83 287.496 226.206 289.384 222.334 289.384ZM222.206 275.432C219.582 275.432 217.918 277 217.534 279.752H226.558C226.558 277.16 224.862 275.432 222.206 275.432ZM231.646 284.456H234.526C234.526 286.056 235.742 287.016 237.726 287.016C239.838 287.016 241.054 286.152 241.054 284.712C241.054 283.656 240.542 283.016 238.91 282.6L236.158 281.96C233.374 281.288 232.062 279.912 232.062 277.608C232.062 274.728 234.494 272.904 237.95 272.904C241.374 272.904 243.614 274.824 243.678 277.8H240.798C240.734 276.232 239.678 275.24 237.854 275.24C235.966 275.24 234.91 276.072 234.91 277.512C234.91 278.568 235.678 279.272 237.214 279.656L239.966 280.328C242.622 280.968 243.934 282.184 243.934 284.52C243.934 287.496 241.374 289.384 237.662 289.384C233.982 289.384 231.646 287.432 231.646 284.456ZM254.356 273.352H256.66V270.856C256.66 267.016 258.772 265.448 261.62 265.448C262.196 265.448 262.868 265.48 263.476 265.576V268.168H262.132C260.18 268.168 259.668 269.16 259.668 270.856V273.352H263.38V275.88H259.668V289H256.66V275.88H254.356V273.352ZM264.683 281.16C264.683 276.328 268.139 272.936 272.843 272.936C277.515 272.936 280.971 276.328 280.971 281.16C280.971 285.992 277.515 289.384 272.843 289.384C268.139 289.384 264.683 285.992 264.683 281.16ZM267.723 281.16C267.723 284.424 269.803 286.696 272.843 286.696C275.851 286.696 277.963 284.424 277.963 281.16C277.963 277.896 275.851 275.624 272.843 275.624C269.803 275.624 267.723 277.896 267.723 281.16ZM293.261 273.224V275.976H291.917C289.069 275.976 287.309 277.704 287.309 280.712V289H284.301V273.384H287.117L287.309 275.752C287.949 274.12 289.517 273.032 291.661 273.032C292.205 273.032 292.653 273.096 293.261 273.224ZM311.104 289.384C306.56 289.384 303.808 285.992 303.808 281.224C303.808 276.424 306.592 272.904 311.232 272.904C313.632 272.904 315.648 273.96 316.704 275.88V265.448H319.68V289H316.992L316.736 286.152C315.712 288.296 313.6 289.384 311.104 289.384ZM311.712 286.664C314.784 286.664 316.672 284.392 316.672 281.128C316.672 277.928 314.784 275.624 311.712 275.624C308.64 275.624 306.848 277.928 306.848 281.128C306.848 284.36 308.64 286.664 311.712 286.664ZM325.492 269.64C324.404 269.64 323.508 268.744 323.508 267.656C323.508 266.536 324.404 265.672 325.492 265.672C326.58 265.672 327.476 266.536 327.476 267.656C327.476 268.744 326.58 269.64 325.492 269.64ZM324.02 289V273.352H327.028V289H324.02ZM330.403 280.776C330.403 276.36 333.251 272.904 337.795 272.904C340.323 272.904 342.275 274.056 343.267 276.008L343.491 273.352H346.179V288.36C346.179 293.288 343.139 296.424 338.339 296.424C334.083 296.424 331.171 294.024 330.595 290.056H333.603C333.987 292.36 335.715 293.704 338.339 293.704C341.283 293.704 343.203 291.784 343.203 288.808V285.672C342.179 287.496 340.131 288.584 337.667 288.584C333.219 288.584 330.403 285.16 330.403 280.776ZM333.411 280.712C333.411 283.656 335.235 285.96 338.179 285.96C341.219 285.96 343.075 283.784 343.075 280.712C343.075 277.704 341.283 275.528 338.211 275.528C335.203 275.528 333.411 277.832 333.411 280.712ZM351.992 269.64C350.904 269.64 350.008 268.744 350.008 267.656C350.008 266.536 350.904 265.672 351.992 265.672C353.08 265.672 353.976 266.536 353.976 267.656C353.976 268.744 353.08 269.64 351.992 269.64ZM350.52 289V273.352H353.528V289H350.52ZM362.311 289H359.303V275.88H356.231V273.352H359.303V268.456H362.311V273.352H365.383V275.88H362.311V289ZM372.471 289.384C369.111 289.384 367.127 287.496 367.127 284.648C367.127 281.768 369.271 279.976 372.951 279.688L377.879 279.304V278.856C377.879 276.232 376.311 275.304 374.199 275.304C371.671 275.304 370.231 276.424 370.231 278.312H367.607C367.607 275.048 370.295 272.904 374.327 272.904C378.199 272.904 380.823 274.952 380.823 279.176V289H378.263L377.943 286.472C377.143 288.264 374.999 289.384 372.471 289.384ZM373.335 287.048C376.183 287.048 377.911 285.192 377.911 282.248V281.416L373.911 281.736C371.255 281.992 370.167 283.016 370.167 284.552C370.167 286.216 371.383 287.048 373.335 287.048ZM388.061 289H385.053V265.448H388.061V289ZM401.239 296.008V273.352H403.959L404.183 276.168C405.239 274.024 407.351 272.904 409.847 272.904C414.327 272.904 417.111 276.264 417.111 281.064C417.111 285.832 414.487 289.416 409.847 289.416C407.351 289.416 405.271 288.36 404.247 286.44V296.008H401.239ZM404.279 281.192C404.279 284.392 406.135 286.696 409.207 286.696C412.279 286.696 414.103 284.392 414.103 281.192C414.103 277.96 412.279 275.656 409.207 275.656C406.135 275.656 404.279 277.928 404.279 281.192ZM429.386 273.224V275.976H428.042C425.194 275.976 423.434 277.704 423.434 280.712V289H420.426V273.384H423.242L423.434 275.752C424.074 274.12 425.642 273.032 427.786 273.032C428.33 273.032 428.778 273.096 429.386 273.224ZM430.621 281.16C430.621 276.328 434.077 272.936 438.781 272.936C443.453 272.936 446.909 276.328 446.909 281.16C446.909 285.992 443.453 289.384 438.781 289.384C434.077 289.384 430.621 285.992 430.621 281.16ZM433.661 281.16C433.661 284.424 435.741 286.696 438.781 286.696C441.789 286.696 443.901 284.424 443.901 281.16C443.901 277.896 441.789 275.624 438.781 275.624C435.741 275.624 433.661 277.896 433.661 281.16ZM456.51 289.384C451.967 289.384 449.215 285.992 449.215 281.224C449.215 276.424 451.999 272.904 456.639 272.904C459.039 272.904 461.055 273.96 462.111 275.88V265.448H465.087V289H462.399L462.143 286.152C461.119 288.296 459.007 289.384 456.51 289.384ZM457.119 286.664C460.191 286.664 462.079 284.392 462.079 281.128C462.079 277.928 460.191 275.624 457.119 275.624C454.047 275.624 452.255 277.928 452.255 281.128C452.255 284.36 454.047 286.664 457.119 286.664ZM480.242 273.352H483.218V289H480.53L480.21 286.632C479.314 288.264 477.234 289.384 474.93 289.384C471.282 289.384 469.234 286.92 469.234 283.08V273.352H472.242V282.088C472.242 285.448 473.682 286.728 475.986 286.728C478.738 286.728 480.242 284.968 480.242 281.608V273.352ZM486.246 281.192C486.246 276.296 489.35 272.904 493.926 272.904C497.862 272.904 500.614 275.144 501.158 278.632H498.15C497.638 276.648 496.038 275.592 494.022 275.592C491.174 275.592 489.222 277.768 489.222 281.16C489.222 284.52 491.046 286.696 493.894 286.696C496.038 286.696 497.638 285.576 498.182 283.72H501.19C500.582 287.112 497.67 289.384 493.894 289.384C489.286 289.384 486.246 286.12 486.246 281.192ZM508.78 289H505.772V275.88H502.7V273.352H505.772V268.456H508.78V273.352H511.852V275.88H508.78V289ZM513.271 284.456H516.151C516.151 286.056 517.367 287.016 519.351 287.016C521.463 287.016 522.679 286.152 522.679 284.712C522.679 283.656 522.167 283.016 520.535 282.6L517.783 281.96C514.999 281.288 513.687 279.912 513.687 277.608C513.687 274.728 516.119 272.904 519.575 272.904C522.999 272.904 525.239 274.824 525.303 277.8H522.423C522.359 276.232 521.303 275.24 519.479 275.24C517.591 275.24 516.535 276.072 516.535 277.512C516.535 278.568 517.303 279.272 518.839 279.656L521.591 280.328C524.247 280.968 525.559 282.184 525.559 284.52C525.559 287.496 522.999 289.384 519.287 289.384C515.607 289.384 513.271 287.432 513.271 284.456ZM530.947 289.384C529.699 289.384 528.643 288.36 528.643 287.144C528.643 285.896 529.699 284.872 530.947 284.872C532.163 284.872 533.219 285.896 533.219 287.144C533.219 288.36 532.163 289.384 530.947 289.384Z" fill="white" fill-opacity="0.7"/>
</g>
<defs>
<filter id="filter0_d_6_152" x="0.70681" y="0.70681" width="668.717" height="384.084" filterUnits="userSpaceOnUse" color-interpolation-filters="sRGB">
<feFlood flood-opacity="0" result="BackgroundImageFix"/>
<feColorMatrix in="SourceAlpha" type="matrix" values="0 0 0 0 0 0 0 0 0 0 0 0 0 0 0 0 0 0 127 0" result="hardAlpha"/>
<feOffset/>
<feGaussianBlur stdDeviation="17.1466"/>
<feComposite in2="hardAlpha" operator="out"/>
<feColorMatrix type="matrix" values="0 0 0 0 0.933333 0 0 0 0 0.439216 0 0 0 0 0.454902 0 0 0 0.4 0"/>
<feBlend mode="normal" in2="BackgroundImageFix" result="effect1_dropShadow_6_152"/>
<feBlend mode="normal" in="SourceGraphic" in2="effect1_dropShadow_6_152" result="shape"/>
</filter>
<linearGradient id="paint0_linear_6_152" x1="612.096" y1="-20.8482" x2="639.379" y2="120.225" gradientUnits="userSpaceOnUse">
<stop stop-color="white"/>
<stop offset="1" stop-color="white" stop-opacity="0.23"/>
</linearGradient>
<linearGradient id="paint1_linear_6_152" x1="63.8431" y1="194.706" x2="120.668" y2="488.53" gradientUnits="userSpaceOnUse">
<stop stop-color="white"/>
<stop offset="1" stop-color="white" stop-opacity="0.23"/>
</linearGradient>
<clipPath id="clip0_6_152">
<rect x="35" y="35" width="600.131" height="315.497" rx="20" fill="white"/>
</clipPath>
</defs>
</svg>
